<?xml version="1.0" encoding="UTF-8"?>
<svg xmlns="http://www.w3.org/2000/svg" style="display: none;">
  <symbol id='discourse-follow-new-reply'  viewBox="0 0 33 30">
    <path d="M15.2 29.3H3.1c-1.7 0-3.1-1.4-3.1-3.1v-1.8C0 20.3 3.3 17 7.4 17h.5c1.3.6 2.8 1 4.4 1 .2 0 .6 0 1.2-.2 0 0 .3 0 .1.3-.8 1.5-1.1 3.2-1.1 4.8 0 2.5 1 4.7 2.7 6.3 0 0 .2.1 0 .1zM12.3 14.3c4 0 7.2-3.2 7.2-7.2S16.3 0 12.3 0 5.1 3.2 5.1 7.2s3.2 7.1 7.2 7.1zM32.4 17.1 26 11.6c-.6-.5-1.5-.1-1.5.7V15.1c-4.8.5-8.4 2.2-8.4 7.6 0 2.6 1.5 5.1 3.2 6.4.5.4 1.3-.1 1.1-.8-1.4-5 .1-7 4.1-7.5v2.4c0 .7.9 1.1 1.5.7l6.4-5.5c.4-.3.4-1 0-1.3z"/>
  </symbol>
  <symbol id='discourse-follow-new-follower'  viewBox="0 0 33 30">
    <path d="M23.1 29.2h1.5c.8 0 1.5-.7 1.5-1.5v-5.3h5.1c.8 0 1.5-.7 1.5-1.5v-1.5c0-.8-.7-1.5-1.5-1.5h-5.1v-5c0-.8-.7-1.5-1.5-1.5h-1.5c-.8 0-1.5.7-1.5 1.5v5h-4.7c-.8 0-1.5.7-1.5 1.5v1.5c0 .8.7 1.5 1.5 1.5h4.7v5.3c0 .8.6 1.5 1.5 1.5zM18.4 29.1v-3.9c0-.1-.1-.1-.1-.1h-2.5c-2.7 0-3.7-2.1-3.7-4V18c0-.2-.2-.2-.2-.2-1.3 0-2.6-.4-4-1h-.5c-4.1 0-7.4 3.3-7.4 7.4v1.9c0 1.7 1.4 3.1 3.1 3.1h15.2c0 .1.1 0 .1-.1z"/>
    <circle cx="12.5" cy="7.1" r="7.1"/>
  </symbol>
  <symbol id='discourse-follow-new-topic'  viewBox="0 0 33 30">
    <path d="M32.6 21.6c-.6-.7-1.8-1.7-1.8-5 0-2.4-1.6-4.3-3.8-4.9-.3-1.6-2.4-1.6-2.7 0-2.2.6-3.9 2.5-3.9 4.9 0 3.3-1.2 4.3-1.8 5-.2.2-.3.5-.3.7 0 .5.4 1 1 1h12.5c.9 0 1.4-1.1.8-1.7zM20.1 29.2h-17c-1.7 0-3.1-1.4-3.1-3.1v-1.9c0-4.3 3.7-7.7 8-7.4 2.6 1.3 6 1.4 8.6.1 0 0 .1-.1.1 0 0 2.4-.5 2.8-1.2 3.5-2 2.1-.7 5.9 2.4 5.7h.8c.1 0 .1.3.1.4.1 1.1.6 1.8 1.3 2.7M25.6 29.2c1.7 0 3-1.3 3-2.9h-6c0 1.5 1.3 2.9 3 2.9zM12.3 14.2c3.9 0 7.1-3.2 7.1-7.1-.3-9.5-14-9.5-14.3 0 0 3.9 3.2 7.1 7.2 7.1z"/>
  </symbol>
</svg>
